<mxfile host="app.diagrams.net" modified="2023-06-14T10:58:25.735Z" agent="Mozilla/5.0 (X11; Linux x86_64) AppleWebKit/537.36 (KHTML, like Gecko) Chrome/114.0.0.0 Safari/537.36" version="21.3.8" etag="m9jrit52f7hM6RAvtjrn" type="github">
  <diagram name="Page-1" id="lROEYZ4rso9DsXsBsShh">
    <mxGraphModel>
      <root>
        <mxCell id="0" />
        <mxCell id="1" parent="0" />
      </root>
    </mxGraphModel>
  </diagram>
</mxfile>
